HIERARCHY
ROOT Hips
{
	OFFSET 0.000000 0.000000 0.000000
	CHANNELS 6 Xposition Yposition Zposition Zrotation Yrotation Xrotation 
	JOINT LeftUpLeg_virtual
	{
		OFFSET 0.000000 0.000000 0.000000
		CHANNELS 3 Zrotation Yrotation Xrotation
		JOINT LeftUpLeg
		{
			OFFSET 8.479694 -4.795517 -0.379053
			CHANNELS 3 Zrotation Yrotation Xrotation
			JOINT LeftLeg
			{
				OFFSET 0.485052 -32.551468 0.112863
				CHANNELS 3 Zrotation Yrotation Xrotation
				JOINT LeftFoot
				{
					OFFSET 0.438033 -32.635670 -3.012641
					CHANNELS 3 Zrotation Yrotation Xrotation
					JOINT LeftToeBase
					{
						OFFSET 0.970169 -13.225353 11.864223
						CHANNELS 3 Zrotation Yrotation Xrotation
						End Site
						{
							OFFSET 0.000000 0.000000 0.000000
						}
					}
				}
			}
		}
	}
	JOINT RightUpLeg_virtual
	{
		OFFSET 0.000000 0.000000 0.000000
		CHANNELS 3 Zrotation Yrotation Xrotation
		JOINT RightUpLeg
		{
			OFFSET -8.479694 -4.795517 -0.379053
			CHANNELS 3 Zrotation Yrotation Xrotation
			JOINT RightLeg
			{
				OFFSET -0.484100 -32.551483 0.112903
				CHANNELS 3 Zrotation Yrotation Xrotation
				JOINT RightFoot
				{
					OFFSET -0.438985 -32.635651 -3.012681
					CHANNELS 3 Zrotation Yrotation Xrotation
					JOINT RightToeBase
					{
						OFFSET -0.970169 -13.225354 11.864223
						CHANNELS 3 Zrotation Yrotation Xrotation
						End Site
						{
							OFFSET 0.000000 0.000000 0.000000
						}
					}
				}
			}
		}
	}
	JOINT Spine_virtual
	{
		OFFSET 0.000000 0.000000 0.000000
		CHANNELS 3 Zrotation Yrotation Xrotation
		JOINT Spine
		{
			OFFSET 0.000000 7.722015 1.166203
			CHANNELS 3 Zrotation Yrotation Xrotation
			JOINT Spine1
			{
				OFFSET 0.000000 12.024086 0.248766
				CHANNELS 3 Zrotation Yrotation Xrotation
				JOINT Spine2
				{
					OFFSET -0.000000 11.503036 -0.491240
					CHANNELS 3 Zrotation Yrotation Xrotation
					JOINT Neck_virtual
					{
						OFFSET 0.000000 0.000000 0.000000
						CHANNELS 3 Zrotation Yrotation Xrotation
						JOINT Neck
						{
							OFFSET 0.000000 18.430687 -3.123054
							CHANNELS 3 Zrotation Yrotation Xrotation
							JOINT Head
							{
								OFFSET -0.000000 9.051071 1.034021
								CHANNELS 3 Zrotation Yrotation Xrotation
								End Site
								{
									OFFSET 0.000000 0.000000 0.000000
								}
							}
						}
					}
					JOINT LeftShoulder_virtual
					{
						OFFSET 0.000000 0.000000 0.000000
						CHANNELS 3 Zrotation Yrotation Xrotation
						JOINT LeftShoulder
						{
							OFFSET 6.197824 13.665230 -4.064723
							CHANNELS 3 Zrotation Yrotation Xrotation
							JOINT LeftArm
							{
								OFFSET 7.778132 -0.187073 -1.709282
								CHANNELS 3 Zrotation Yrotation Xrotation
								JOINT LeftForeArm
								{
									OFFSET 21.954697 0.000000 -2.041093
									CHANNELS 3 Zrotation Yrotation Xrotation
									JOINT LeftHand
									{
										OFFSET 22.992908 0.000000 -0.870901
										CHANNELS 3 Zrotation Yrotation Xrotation
										End Site
										{
											OFFSET 0.000000 0.000000 0.000000
										}
									}
								}
							}
						}
					}
					JOINT RightShoulder_virtual
					{
						OFFSET 0.000000 0.000000 0.000000
						CHANNELS 3 Zrotation Yrotation Xrotation
						JOINT RightShoulder
						{
							OFFSET -6.197824 13.665230 -4.064723
							CHANNELS 3 Zrotation Yrotation Xrotation
							JOINT RightArm
							{
								OFFSET -7.778132 -0.187073 -1.709282
								CHANNELS 3 Zrotation Yrotation Xrotation
								JOINT RightForeArm
								{
									OFFSET -21.954697 0.000000 -2.041093
									CHANNELS 3 Zrotation Yrotation Xrotation
									JOINT RightHand
									{
										OFFSET -22.992908 0.000000 -0.870901
										CHANNELS 3 Zrotation Yrotation Xrotation
										End Site
										{
											OFFSET 0.000000 0.000000 0.000000
										}
									}
								}
							}
						}
					}
				}
			}
		}
	}
}
MOTION
Frames: 12
Frame Time: 0.033333
-18.187391 55.134602 -12.609507 -179.964925 4.381906 -179.878086 7.443800 -2.911903 -30.107669 -9.576090 6.463812 -48.855834 15.190230 3.038156 39.525816 -9.439074 -12.741509 -0.347309 0.000000 0.000000 0.000000 3.513314 2.532538 -25.241709 1.096875 5.514909 -51.028371 -1.728296 -0.549979 35.983315 5.738700 6.253017 4.549755 0.000000 0.000000 0.000000 1.898793 5.808457 -40.658788 -0.555317 -4.645330 -9.737599 -1.802028 -1.680124 12.685193 -0.025239 -0.057303 0.049818 -2.218232 -0.838857 15.077149 -1.887591 -3.186466 25.933781 0.000000 0.000000 0.000000 0.898988 -0.636214 10.084733 0.111022 3.977018 -1.933577 22.547117 -38.520191 -70.745023 -163.153617 -79.337770 179.172487 0.000000 0.000000 0.000000 -4.589231 1.301965 9.493384 22.819659 5.167701 -14.278166 -21.243666 16.323233 -65.444161 176.354596 34.292515 174.872801 0.000000 0.000000 0.000000 
-18.159328 55.102665 -12.629359 179.896323 4.451950 -179.879698 7.476692 -3.067218 -29.994041 -9.318550 6.152414 -49.032012 15.226662 3.066425 39.740493 -9.091192 -12.722073 -0.575513 0.000000 0.000000 0.000000 3.615991 2.374275 -25.131411 1.016724 5.507193 -51.322776 -1.624674 -0.673621 36.203080 5.977391 6.172167 4.596804 0.000000 0.000000 0.000000 1.990379 5.500836 -40.782312 -0.512931 -4.658605 -9.745428 -1.855939 -1.546628 12.817868 0.021150 0.067254 0.048047 -2.288309 -0.762989 15.146453 -1.811127 -3.022942 25.866410 0.000000 0.000000 0.000000 0.832801 -0.556390 10.149839 0.147368 3.569646 -1.958721 21.659587 -37.720321 -70.125689 -163.590831 -78.710308 179.513750 0.000000 0.000000 0.000000 -4.668628 1.401432 9.582465 22.644060 5.135706 -14.149266 -19.936434 15.860804 -65.621261 176.634839 34.414147 174.848594 0.000000 0.000000 0.000000 
-18.142817 55.083530 -12.635580 179.834919 4.783259 -179.880285 7.597767 -3.174234 -29.848060 -9.167926 6.110372 -49.237027 15.452251 2.924672 39.916158 -9.022414 -12.775933 -0.812938 0.000000 0.000000 0.000000 3.771541 2.410026 -25.022265 0.964031 5.744938 -51.566156 -1.559108 -0.646820 36.372441 6.162275 6.041296 4.726237 0.000000 0.000000 0.000000 2.084873 5.427376 -40.934321 -0.383397 -4.625805 -9.739852 -1.886329 -1.402555 12.945795 0.036399 -0.097744 0.055177 -2.413436 -0.632188 15.239327 -1.829181 -2.786135 25.802349 0.000000 0.000000 0.000000 0.733886 -0.505223 10.169251 0.284102 3.138277 -1.930752 20.407246 -36.948499 -69.258835 -164.256460 -78.135233 -179.778598 0.000000 0.000000 0.000000 -4.724378 1.493297 9.631458 22.516651 5.182145 -13.829177 -18.522006 15.316967 -65.349467 176.941842 34.639769 174.883114 0.000000 0.000000 0.000000 
-18.141985 55.080326 -12.640439 179.714667 4.902147 -179.910912 7.531516 -3.293797 -29.669666 -8.881408 6.006197 -49.417033 15.438905 3.011142 40.085342 -8.759514 -12.835286 -1.058490 0.000000 0.000000 0.000000 3.789044 2.356645 -24.909486 1.009021 5.805857 -51.750127 -1.500793 -0.608654 36.512740 6.333603 5.900849 4.837206 0.000000 0.000000 0.000000 2.103287 5.366518 -41.083615 -0.295944 -4.767483 -9.769839 -1.991734 -1.395949 13.014219 0.024396 0.013442 0.041357 -2.444368 -0.523761 15.320423 -1.892198 -2.586620 25.715054 0.000000 0.000000 0.000000 0.667951 -0.369166 10.196755 0.295159 2.588846 -1.841771 18.792087 -36.140341 -68.214520 -164.528711 -77.802528 -179.291441 0.000000 0.000000 0.000000 -4.732271 1.549604 9.718758 22.290659 5.243528 -13.437685 -16.973749 14.758751 -64.876456 177.220733 35.004617 174.944518 0.000000 0.000000 0.000000 
-18.115824 55.077862 -12.654129 179.672921 4.988941 -179.918726 7.424907 -3.310511 -29.489553 -8.554321 5.866952 -49.562400 15.370270 3.190782 40.246982 -8.582816 -12.944902 -1.306584 0.000000 0.000000 0.000000 3.766324 2.345341 -24.798521 1.098378 5.866048 -51.885699 -1.467683 -0.536576 36.614236 6.420489 5.731239 4.833403 0.000000 0.000000 0.000000 2.173201 5.255632 -41.178825 -0.153000 -4.781642 -9.806395 -2.034810 -1.312334 13.056752 0.022861 0.028536 0.041591 -2.513516 -0.408065 15.341682 -2.024777 -2.356557 25.582345 0.000000 0.000000 0.000000 0.572697 -0.251640 10.247389 0.220590 1.958809 -1.697461 16.689210 -35.281909 -66.814133 -164.567589 -77.667597 -178.904306 0.000000 0.000000 0.000000 -4.766689 1.609738 9.748757 21.964966 5.313371 -12.884913 -14.905015 13.945602 -64.379956 177.514608 35.480883 174.996044 0.000000 0.000000 0.000000 
-18.062336 55.084164 -12.659308 179.668809 4.984380 -179.924641 7.289869 -3.289474 -29.241471 -8.180986 5.684985 -49.663890 15.211946 3.487061 40.354738 -8.403382 -13.054831 -1.510654 0.000000 0.000000 0.000000 3.730457 2.336680 -24.648642 1.209959 5.868217 -51.968707 -1.449389 -0.457821 36.650119 6.462106 5.570384 4.794577 0.000000 0.000000 0.000000 2.210958 5.216744 -41.150442 -0.001465 -4.816827 -9.782982 -2.063563 -1.257362 13.099870 0.009314 0.037193 0.044356 -2.520698 -0.341637 15.360773 -2.200128 -2.155742 25.369903 0.000000 0.000000 0.000000 0.516572 -0.184198 10.290121 0.078025 1.218601 -1.480295 13.891352 -34.194686 -64.993444 -164.307263 -77.672577 -178.717186 0.000000 0.000000 0.000000 -4.768556 1.649191 9.767293 21.610495 5.360183 -12.237352 -12.289243 12.841749 -64.208272 177.877251 36.209370 175.115040 0.000000 0.000000 0.000000 
-17.970219 55.092323 -12.655005 179.758886 4.925237 -179.945459 7.205604 -3.279875 -28.988925 -7.906249 5.616284 -49.806204 15.037775 3.667748 40.356904 -8.325637 -13.227366 -1.633714 0.000000 0.000000 0.000000 3.726460 2.354171 -24.473807 1.303867 5.875245 -52.067973 -1.451958 -0.407232 36.580290 6.456253 5.405612 4.734808 0.000000 0.000000 0.000000 2.357629 5.072103 -41.030995 0.201724 -4.803915 -9.699942 -2.026861 -1.202266 13.118560 0.045653 0.077426 0.022909 -2.602790 -0.275208 15.407715 -2.443093 -1.930518 25.097732 0.000000 0.000000 0.000000 0.422939 -0.125971 10.305009 -0.219259 0.450372 -1.164666 10.380216 -32.708765 -62.595453 -163.961833 -77.806879 -178.560024 0.000000 0.000000 0.000000 -4.809421 1.670822 9.809016 21.193741 5.333164 -11.568647 -8.891897 11.493130 -64.355559 178.345405 37.124482 175.308826 0.000000 0.000000 0.000000 
-17.865404 55.096321 -12.630067 179.767341 4.792706 -179.973504 7.101028 -3.303755 -28.749772 -7.646291 5.519793 -50.012428 14.807722 3.863213 40.241671 -8.178998 -13.372854 -1.710834 0.000000 0.000000 0.000000 3.728534 2.319175 -24.285472 1.368674 5.821053 -52.199775 -1.467065 -0.374391 36.454413 6.465551 5.274659 4.748167 0.000000 0.000000 0.000000 2.483676 4.911825 -40.754547 0.367508 -4.782180 -9.516523 -2.009779 -1.159637 13.161810 0.043482 0.084114 0.021794 -2.597275 -0.197038 15.441224 -2.763736 -1.680807 24.678896 0.000000 0.000000 0.000000 0.402390 -0.052233 10.345471 -0.652315 -0.226362 -0.755793 6.120530 -30.956726 -59.697807 -163.368371 -78.084266 -178.657081 0.000000 0.000000 0.000000 -4.785186 1.723983 9.882271 20.838718 5.342786 -10.764863 -4.883813 10.003627 -64.574261 178.868625 38.235013 175.566434 0.000000 0.000000 0.000000 
-17.804462 55.102856 -12.572696 179.782832 4.638452 -179.894670 7.040011 -3.385287 -28.466666 -7.484987 5.508309 -50.264738 14.580335 4.033684 40.017044 -8.021685 -13.492561 -1.561625 0.000000 0.000000 0.000000 3.782073 2.233610 -24.102573 1.406041 5.763502 -52.348790 -1.497976 -0.341219 36.259005 6.484178 5.152968 4.940740 0.000000 0.000000 0.000000 2.597016 4.834352 -40.387844 0.526940 -4.764855 -9.324597 -1.987829 -1.161340 13.162333 0.033756 0.036727 0.016401 -2.571840 -0.160918 15.477282 -3.107894 -1.471179 24.029707 0.000000 0.000000 0.000000 0.361750 0.049810 10.405819 -1.269300 -0.756054 -0.161965 1.225105 -28.845180 -56.320647 -162.635779 -78.498060 -178.987170 0.000000 0.000000 0.000000 -4.757185 1.686031 9.977370 20.525538 5.410880 -10.025382 -0.207626 8.496867 -64.515713 179.374278 39.554322 175.768771 0.000000 0.000000 0.000000 
-17.792685 55.111481 -12.498191 179.742152 4.450826 -179.965581 6.970900 -3.547807 -28.081148 -7.455069 5.534662 -50.507791 14.352471 4.164486 39.746298 -7.850245 -13.611513 -1.301802 0.000000 0.000000 0.000000 3.857779 2.070040 -23.860117 1.398310 5.681114 -52.501137 -1.538768 -0.288868 35.960311 6.518610 5.054031 5.150740 0.000000 0.000000 0.000000 2.618488 4.785849 -39.681248 0.583074 -4.675517 -9.062278 -1.931150 -1.135316 13.206222 0.041955 0.017133 0.042384 -2.552077 -0.091131 15.444977 -3.356566 -1.447185 23.311272 0.000000 0.000000 0.000000 0.301908 0.055679 10.484855 -2.085074 -1.337624 0.349793 -4.035622 -26.395181 -52.127560 -161.665168 -78.968072 -179.669738 0.000000 0.000000 0.000000 -4.794442 1.703569 9.945555 20.386329 5.080767 -8.969810 5.085666 6.959895 -63.397256 -179.960076 40.993248 176.187653 0.000000 0.000000 0.000000 
-17.852041 55.126583 -12.438169 179.877758 4.404436 -179.996207 6.977852 -3.613253 -27.610589 -7.481682 5.798714 -50.991382 14.440263 4.454265 39.647199 -6.782713 -12.909625 -1.528374 0.000000 0.000000 0.000000 4.023662 1.950961 -23.653025 1.400570 5.599597 -52.576296 -1.838378 -0.558860 35.792985 5.549191 4.106804 4.860855 0.000000 0.000000 0.000000 2.938954 4.602420 -38.683227 0.795925 -4.540778 -8.819024 -2.038439 -1.094561 13.193235 -0.004462 0.027246 0.035614 -2.573602 -0.131949 15.402172 -3.776918 -1.234930 22.437890 0.000000 0.000000 0.000000 0.264752 0.141944 10.529563 -3.053859 -1.711227 1.019930 -9.464213 -23.617467 -47.322498 -160.578704 -79.363738 179.307601 0.000000 0.000000 0.000000 -4.759888 1.755920 10.044352 20.478459 4.929940 -7.807672 10.669479 5.452286 -61.523619 -179.332791 42.728229 176.551169 0.000000 0.000000 0.000000 
-17.932922 55.154240 -12.407348 -179.950691 4.375030 179.958587 7.101444 -3.628423 -27.042462 -7.307068 5.737203 -51.512669 14.419207 4.189494 39.940559 -6.374388 -12.902259 -1.485928 0.000000 0.000000 0.000000 4.129864 1.855037 -23.074047 1.051312 6.015712 -53.115253 -1.958268 -0.076276 35.887675 5.684410 4.177535 5.205927 0.000000 0.000000 0.000000 3.120579 4.684128 -37.434942 0.925659 -4.416539 -8.567340 -2.115320 -1.115055 13.183497 -0.025271 -0.038132 0.030754 -2.650938 -0.126433 15.359571 -4.105020 -1.186026 21.388778 0.000000 0.000000 0.000000 0.163828 0.137751 10.603265 -4.093552 -2.162936 1.749944 -14.527385 -20.653509 -42.070356 -159.074204 -79.790181 177.614466 0.000000 0.000000 0.000000 -4.807611 1.749584 10.125676 20.653684 4.716886 -6.719252 16.500468 3.923643 -58.798360 -178.623421 44.834888 176.975570 0.000000 0.000000 0.000000 
